<svg width="564" height="205" viewBox="0 0 564 205" fill="none" xmlns="http://www.w3.org/2000/svg">
<path d="M100.224 185C97.248 186.152 94.032 186.728 90.576 186.728C87.12 186.728 84.432 186.104 82.512 184.856C80.592 183.608 79.008 181.736 77.76 179.24C75.936 175.592 73.872 169.4 71.568 160.664C69.264 151.832 67.44 142.184 66.096 131.72C58.032 157.352 53.424 174.824 52.272 184.136C48.048 185.288 44.256 185.864 40.896 185.864C35.424 185.864 31.392 183.896 28.8 179.96C26.208 175.928 24.336 170.696 23.184 164.264C23.184 164.072 22.464 160.04 21.024 152.168C19.584 144.296 18.528 138.824 17.856 135.752C15.648 124.52 13.344 115.112 10.944 107.528C8.64 99.944 5.232 94.76 0.72 91.976C1.872 89.096 3.648 86.84 6.048 85.208C8.448 83.576 11.136 82.76 14.112 82.76C20.736 82.76 25.488 87.752 28.368 97.736C30.384 104.744 32.784 116.648 35.568 133.448C38.352 150.152 40.416 162.104 41.76 169.304C52.608 138.968 58.032 118.904 58.032 109.112C58.032 107.096 57.792 105.704 57.312 104.936C59.328 102.632 62.16 101.48 65.808 101.48C69.552 101.48 72.432 102.488 74.448 104.504C76.56 106.52 78.24 109.784 79.488 114.296C80.736 118.712 82.464 127.4 84.672 140.36C86.976 153.32 88.752 162.968 90 169.304C93.84 157.208 96.864 147.464 99.072 140.072C101.376 132.68 103.728 123.368 106.128 112.136C108.624 100.904 109.872 91.832 109.872 84.92C109.872 83.672 109.824 82.76 109.728 82.184C110.976 81.992 113.088 81.896 116.064 81.896C119.04 81.896 121.632 82.856 123.84 84.776C126.144 86.6 127.296 89.576 127.296 93.704C127.296 97.832 125.76 104.744 122.688 114.44C119.712 124.136 115.824 135.944 111.024 149.864C106.32 163.688 102.72 175.4 100.224 185ZM142.651 152.312C142.651 159.224 143.755 164.696 145.963 168.728C148.171 172.664 151.867 174.632 157.051 174.632C162.235 174.632 166.267 172.904 169.147 169.448C172.123 165.896 173.611 161.624 173.611 156.632C176.875 156.632 179.707 157.448 182.107 159.08C184.507 160.712 185.707 162.968 185.707 165.848C185.707 171.8 182.539 176.792 176.203 180.824C169.867 184.76 163.195 186.728 156.187 186.728C145.243 186.728 137.323 183.8 132.427 177.944C127.531 171.992 125.083 163.208 125.083 151.592C125.083 139.976 128.347 130.232 134.875 122.36C141.499 114.392 150.283 110.408 161.227 110.408C168.715 110.408 174.715 112.136 179.227 115.592C183.835 118.952 186.139 124.232 186.139 131.432C186.139 138.536 182.875 143.912 176.347 147.56C169.915 151.112 162.043 152.888 152.731 152.888C149.467 152.888 146.107 152.696 142.651 152.312ZM142.795 140.936C145.675 141.512 148.699 141.8 151.867 141.8C158.779 141.8 164.587 140.504 169.291 137.912C169.867 135.608 170.155 133.784 170.155 132.44C170.155 129.08 168.955 126.536 166.555 124.808C164.155 123.08 160.843 122.216 156.619 122.216C152.491 122.216 148.747 123.56 145.387 126.248C143.659 131.24 142.795 136.136 142.795 140.936ZM265.53 117.176C262.938 128.216 261.642 139.304 261.642 150.44C261.642 161.48 262.89 172.424 265.386 183.272C261.93 184.424 258.378 185 254.73 185C251.082 185 248.538 183.944 247.098 181.832C245.658 179.624 244.938 176.504 244.938 172.472C244.938 168.344 245.562 162.728 246.81 155.624C239.994 170.216 233.418 179.432 227.082 183.272C224.202 185 221.226 185.864 218.154 185.864C210.858 185.864 205.194 183.176 201.162 177.8C197.13 172.328 195.114 165.56 195.114 157.496C195.114 145.208 198.522 134.456 205.338 125.24C212.154 115.928 220.986 111.272 231.834 111.272C242.778 111.272 254.01 113.24 265.53 117.176ZM246.666 125.816C241.578 124.28 237.258 123.512 233.706 123.512C226.506 123.512 221.13 125.096 217.578 128.264C214.314 136.328 212.682 144.536 212.682 152.888C212.682 157.304 213.354 161.768 214.698 166.28C216.138 170.792 218.298 173.048 221.178 173.048C224.538 173.048 228.858 168.104 234.138 158.216C239.418 148.328 243.594 137.528 246.666 125.816ZM283.807 90.968C286.879 89.432 289.999 88.664 293.167 88.664C296.335 88.664 298.879 89.672 300.799 91.688C302.815 93.704 303.823 96.68 303.823 100.616C303.823 104.552 303.583 109.016 303.103 114.008C310.303 114.008 317.167 113 323.695 110.984C324.847 112.904 325.423 115.16 325.423 117.752C325.423 120.248 324.271 122.312 321.967 123.944C319.759 125.48 317.503 126.248 315.199 126.248C312.895 126.248 310.303 125.96 307.423 125.384C304.543 124.808 302.671 124.472 301.807 124.376C301.711 125.24 301.423 126.968 300.943 129.56C300.559 132.152 300.223 134.408 299.935 136.328C299.167 141.608 298.783 147.272 298.783 153.32C298.783 166.472 303.055 173.048 311.599 173.048C314.767 173.048 318.415 171.944 322.543 169.736C323.791 171.56 324.415 173.912 324.415 176.792C324.415 179.672 322.831 181.928 319.663 183.56C316.591 185.096 312.895 185.864 308.575 185.864C291.679 185.864 283.231 176.264 283.231 157.064C283.231 154.28 283.615 149.24 284.383 141.944C285.247 134.648 285.679 128.744 285.679 124.232C281.071 124.52 277.375 125.336 274.591 126.68C273.439 124.952 272.863 122.984 272.863 120.776C272.863 118.472 273.679 116.6 275.311 115.16C276.943 113.624 278.959 112.856 281.359 112.856C283.759 112.856 285.343 112.904 286.111 113C286.207 112.232 286.255 111.224 286.255 109.976C286.255 102.776 285.439 96.44 283.807 90.968ZM401.532 126.824L400.092 158.504C400.092 166.952 401.484 175.496 404.268 184.136C401.292 185.288 398.268 185.864 395.196 185.864C386.844 185.864 382.668 181.448 382.668 172.616C382.668 166.088 383.244 158.408 384.396 149.576C385.548 140.744 386.124 135.32 386.124 133.304C386.124 128.312 383.868 125.816 379.356 125.816C374.556 125.816 369.228 130.328 363.372 139.352C357.516 148.28 354.156 155.768 353.292 161.816C353.484 164.6 354.444 171.752 356.172 183.272C353.196 184.424 349.932 185 346.38 185C338.988 185 335.292 181.4 335.292 174.2C335.292 170.744 335.82 163.976 336.876 153.896C337.932 143.72 338.46 135.56 338.46 129.416C338.46 108.968 337.308 92.072 335.004 78.728C338.076 77.576 341.244 77 344.508 77C347.772 77 350.46 78.104 352.572 80.312C354.78 82.424 355.884 85.352 355.884 89.096C355.884 92.84 355.356 100.568 354.3 112.28C353.34 123.992 352.86 133.112 352.86 139.64C356.22 132.536 361.116 126.056 367.548 120.2C374.076 114.248 380.556 111.272 386.988 111.272C396.684 111.272 401.532 116.456 401.532 126.824ZM431.917 152.312C431.917 159.224 433.021 164.696 435.229 168.728C437.437 172.664 441.133 174.632 446.317 174.632C451.501 174.632 455.533 172.904 458.413 169.448C461.389 165.896 462.877 161.624 462.877 156.632C466.141 156.632 468.973 157.448 471.373 159.08C473.773 160.712 474.973 162.968 474.973 165.848C474.973 171.8 471.805 176.792 465.469 180.824C459.133 184.76 452.461 186.728 445.453 186.728C434.509 186.728 426.589 183.8 421.693 177.944C416.797 171.992 414.349 163.208 414.349 151.592C414.349 139.976 417.613 130.232 424.141 122.36C430.765 114.392 439.549 110.408 450.493 110.408C457.981 110.408 463.981 112.136 468.493 115.592C473.101 118.952 475.405 124.232 475.405 131.432C475.405 138.536 472.141 143.912 465.613 147.56C459.181 151.112 451.309 152.888 441.997 152.888C438.733 152.888 435.373 152.696 431.917 152.312ZM432.061 140.936C434.941 141.512 437.965 141.8 441.133 141.8C448.045 141.8 453.853 140.504 458.557 137.912C459.133 135.608 459.421 133.784 459.421 132.44C459.421 129.08 458.221 126.536 455.821 124.808C453.421 123.08 450.109 122.216 445.885 122.216C441.757 122.216 438.013 123.56 434.653 126.248C432.925 131.24 432.061 136.136 432.061 140.936ZM510.156 183.272C507.18 184.424 504.012 185 500.652 185C497.292 185 494.556 184.232 492.444 182.696C490.428 181.064 489.42 178.856 489.42 176.072C489.42 173.192 489.852 168.008 490.716 160.52C491.58 153.032 492.012 145.784 492.012 138.776C492.012 131.672 490.908 123.368 488.7 113.864C491.772 112.712 494.796 112.136 497.772 112.136C500.748 112.136 503.292 113.144 505.404 115.16C507.612 117.176 508.716 119.864 508.716 123.224C508.716 124.952 508.428 127.544 507.852 131C507.276 134.36 506.94 136.904 506.844 138.632C510.588 130.088 515.004 123.416 520.092 118.616C525.276 113.72 530.412 111.272 535.5 111.272C539.052 111.272 541.884 112.52 543.996 115.016C546.108 117.512 547.164 120.68 547.164 124.52C547.164 128.264 546.204 131.336 544.284 133.736C542.364 136.04 539.964 137.192 537.084 137.192C534.3 137.192 532.044 136.904 530.316 136.328C530.604 135.176 530.748 134.12 530.748 133.16C530.748 129.224 529.356 127.256 526.572 127.256C522.348 127.256 518.364 131.528 514.62 140.072C510.972 148.52 508.524 156.44 507.276 163.832C507.756 171.032 508.716 177.512 510.156 183.272Z" fill="#00B4D2"/>
<path d="M271.593 95.6108C270.563 97.9931 268.728 98.7335 266.184 98.7335C251.827 98.6691 237.501 98.6691 223.144 98.7335C221.341 98.7335 219.957 98.1862 218.701 96.8985C214.741 92.8745 210.717 88.9149 206.758 84.8909C206.05 84.1505 205.663 84.0539 204.891 84.8587C200.835 88.9793 196.714 93.0355 192.658 97.1561C191.595 98.2184 190.404 98.7657 188.891 98.7657C174.115 98.7335 159.339 98.7657 144.563 98.7657C141.279 98.7657 139.219 96.0615 140.281 93.2286C140.893 91.5546 142.374 90.5567 144.402 90.5567C149.07 90.5567 153.738 90.5567 158.405 90.5567C167.773 90.5567 177.173 90.5567 186.541 90.5567C187.314 90.5567 187.861 90.3635 188.441 89.7841C193.044 85.1162 197.68 80.5128 202.315 75.8771C204.73 73.4627 206.854 73.4627 209.269 75.8771C213.84 80.4484 218.444 84.9875 222.95 89.6231C223.659 90.3313 224.335 90.5567 225.3 90.5567C238.918 90.5245 252.535 90.5889 266.152 90.4923C268.695 90.4923 270.53 91.2327 271.56 93.6149C271.593 94.2266 271.593 94.9026 271.593 95.6108Z" fill="#FFE600"/>
<path d="M271.593 66.8312C270.563 69.2134 268.76 70.0826 266.217 69.9539C263.995 69.8251 261.774 69.9539 259.553 69.9217C256.977 69.8895 255.143 68.1189 255.175 65.7367C255.207 63.4189 257.042 61.7127 259.553 61.6805C261.774 61.6483 263.995 61.7771 266.217 61.6483C268.76 61.4873 270.595 62.3887 271.593 64.7709C271.593 65.447 271.593 66.123 271.593 66.8312Z" fill="#FFE600"/>
<path d="M205.47 24.6917C222.854 24.6273 238.532 35.5726 244.358 51.6364C247.674 60.779 247.771 69.9537 244.648 79.1606C243.972 81.0922 242.459 82.2833 240.688 82.2511C238.886 82.2189 237.373 81.1244 236.793 79.4504C236.407 78.2915 236.664 77.1647 237.018 76.0702C238.532 71.5311 238.982 66.8955 238.467 62.1632C236.954 47.709 225.365 35.5726 211.039 33.4479C195.845 31.1945 181.68 38.9206 175.596 52.9563C172.473 60.1995 172.055 67.6681 174.341 75.2654C174.501 75.8449 174.727 76.3921 174.856 76.9716C175.467 79.3216 174.308 81.4141 172.023 82.1223C169.93 82.7662 167.773 81.6716 167.033 79.4504C165.327 74.4606 164.49 69.3421 164.747 64.0626C165.295 53.5358 169.222 44.4576 176.594 36.989C182.968 30.5184 190.694 26.591 199.708 25.2389C201.736 24.8848 203.764 24.7882 205.47 24.6917Z" fill="#FFE600"/>
<path d="M201.704 8.24159C201.704 6.85733 201.671 5.50527 201.704 4.12101C201.768 1.77099 203.539 0.0326165 205.76 0.000424431C208.045 -0.0317676 209.848 1.77099 209.88 4.1532C209.913 6.85734 209.913 9.56147 209.88 12.2334C209.848 14.6478 208.045 16.4184 205.76 16.4184C203.474 16.4184 201.736 14.6156 201.671 12.2012C201.704 10.9135 201.704 9.56147 201.704 8.24159Z" fill="#FFE600"/>
<path d="M148.2 69.8894C146.881 69.8894 145.561 69.9216 144.209 69.8894C141.794 69.825 140.024 68.0222 140.056 65.7366C140.088 63.4832 141.826 61.7126 144.176 61.6804C146.913 61.6482 149.649 61.6482 152.385 61.6804C154.703 61.7126 156.474 63.5154 156.474 65.7688C156.474 68.0223 154.735 69.825 152.418 69.8894C151.033 69.9538 149.617 69.8894 148.2 69.8894Z" fill="#FFE600"/>
<path d="M253.533 22.1486C253.468 23.3075 253.082 24.3055 252.277 25.1425C250.378 27.0418 248.511 28.9733 246.547 30.8405C244.777 32.5466 242.33 32.5145 240.688 30.8727C239.111 29.2631 239.079 26.8165 240.72 25.1103C242.652 23.1144 244.616 21.1507 246.612 19.2191C247.867 18.028 249.38 17.7383 250.99 18.4465C252.631 19.1226 253.404 20.4424 253.533 22.1486Z" fill="#FFE600"/>
<path d="M172.151 27.9754C172.023 29.6494 171.347 30.9371 169.801 31.6775C168.256 32.4179 166.711 32.3214 165.488 31.1946C163.266 29.1343 161.11 26.9775 159.049 24.7562C157.601 23.1788 157.826 20.7966 159.307 19.2836C160.788 17.8027 163.202 17.6096 164.779 19.0582C166.969 21.0863 169.061 23.2432 171.154 25.4001C171.862 26.0761 172.087 27.0097 172.151 27.9754Z" fill="#FFE600"/>
</svg>
