<svg width="148" height="20" viewBox="0 0 148 20" fill="none" xmlns="http://www.w3.org/2000/svg">
<path d="M63 0H0V20H63V0Z" fill="#424242"/>
<path d="M148 0H63V20H148V0Z" fill="#9F9F9F"/>
<path d="M148 0H0V20H148V0Z" fill="url(#paint0_linear)"/>
<path d="M13.0249 11.9277C13.0249 12.4147 12.9551 12.8605 12.8154 13.2651C12.6758 13.6662 12.4788 14.0063 12.2246 14.2856C11.9883 14.5506 11.709 14.7565 11.3867 14.9033C11.068 15.0465 10.7297 15.1182 10.3716 15.1182C10.0601 15.1182 9.77718 15.0841 9.52295 15.0161C9.2723 14.9481 9.01628 14.8424 8.75488 14.6992V17.2129H7.74512V9.00049H8.75488V9.62891C9.02344 9.40332 9.32422 9.21533 9.65723 9.06494C9.99382 8.91097 10.3519 8.83398 10.7314 8.83398C11.4548 8.83398 12.0169 9.10791 12.418 9.65576C12.8226 10.2 13.0249 10.9574 13.0249 11.9277ZM11.9829 11.9546C11.9829 11.2313 11.8594 10.6906 11.6123 10.3325C11.3652 9.97445 10.9857 9.79541 10.4736 9.79541C10.1836 9.79541 9.89176 9.85807 9.59814 9.9834C9.30452 10.1087 9.02344 10.2734 8.75488 10.4775V13.8774C9.04134 14.0063 9.28662 14.0941 9.49072 14.1406C9.6984 14.1872 9.93294 14.2104 10.1943 14.2104C10.7565 14.2104 11.1951 14.0207 11.5103 13.6411C11.8254 13.2616 11.9829 12.6994 11.9829 11.9546ZM15.6191 15H14.6094V6.64258H15.6191V15ZM22.2793 15H21.2749V14.3608C21.1854 14.4217 21.0636 14.5076 20.9097 14.6187C20.7593 14.7261 20.6125 14.812 20.4692 14.8765C20.3009 14.9588 20.1076 15.0269 19.8892 15.0806C19.6707 15.1379 19.4147 15.1665 19.1211 15.1665C18.5804 15.1665 18.1221 14.9875 17.7461 14.6294C17.3701 14.2713 17.1821 13.8148 17.1821 13.2598C17.1821 12.805 17.2788 12.438 17.4722 12.1587C17.6691 11.8758 17.9484 11.6538 18.3101 11.4927C18.6753 11.3315 19.1139 11.2223 19.626 11.165C20.138 11.1077 20.6877 11.0648 21.2749 11.0361V10.8804C21.2749 10.6512 21.2337 10.4614 21.1514 10.311C21.0726 10.1606 20.958 10.0425 20.8076 9.95654C20.6644 9.87419 20.4925 9.81868 20.292 9.79004C20.0915 9.76139 19.882 9.74707 19.6636 9.74707C19.3986 9.74707 19.1032 9.78288 18.7773 9.85449C18.4515 9.92253 18.1149 10.0228 17.7676 10.1553H17.7139V9.12939C17.9108 9.07568 18.1955 9.0166 18.5679 8.95215C18.9403 8.8877 19.3073 8.85547 19.6689 8.85547C20.0915 8.85547 20.4585 8.89128 20.77 8.96289C21.0851 9.03092 21.3573 9.14909 21.5864 9.31738C21.812 9.4821 21.9839 9.69515 22.1021 9.95654C22.2202 10.2179 22.2793 10.542 22.2793 10.9287V15ZM21.2749 13.5229V11.8525C20.967 11.8704 20.6035 11.8973 20.1846 11.9331C19.7692 11.9689 19.4398 12.0208 19.1963 12.0889C18.9062 12.1712 18.6717 12.3001 18.4927 12.4756C18.3136 12.6475 18.2241 12.8856 18.2241 13.1899C18.2241 13.5337 18.328 13.7933 18.5356 13.9688C18.7433 14.1406 19.0602 14.2266 19.4863 14.2266C19.8408 14.2266 20.1649 14.1585 20.4585 14.0225C20.7521 13.8828 21.0243 13.7163 21.2749 13.5229ZM27.3389 14.9463C27.1491 14.9964 26.9414 15.0376 26.7158 15.0698C26.4938 15.1021 26.2951 15.1182 26.1196 15.1182C25.5073 15.1182 25.0418 14.9535 24.7231 14.624C24.4045 14.2946 24.2451 13.7664 24.2451 13.0396V9.84912H23.563V9.00049H24.2451V7.27637H25.2549V9.00049H27.3389V9.84912H25.2549V12.583C25.2549 12.8981 25.262 13.1452 25.2764 13.3242C25.2907 13.4997 25.3408 13.6644 25.4268 13.8184C25.5055 13.9616 25.613 14.0672 25.749 14.1353C25.8887 14.1997 26.0999 14.2319 26.3828 14.2319C26.5475 14.2319 26.7194 14.2087 26.8984 14.1621C27.0775 14.112 27.2064 14.0708 27.2852 14.0386H27.3389V14.9463ZM31.7915 7.62012H31.7378C31.6268 7.58789 31.4818 7.55566 31.3027 7.52344C31.1237 7.48763 30.9661 7.46973 30.8301 7.46973C30.3968 7.46973 30.0817 7.56641 29.8848 7.75977C29.6914 7.94954 29.5947 8.29508 29.5947 8.79639V9.00049H31.4155V9.84912H29.627V15H28.6172V9.84912H27.9351V9.00049H28.6172V8.80176C28.6172 8.08919 28.7944 7.54313 29.1489 7.16357C29.5034 6.78044 30.0155 6.58887 30.6851 6.58887C30.9106 6.58887 31.113 6.59961 31.292 6.62109C31.4746 6.64258 31.6411 6.66764 31.7915 6.69629V7.62012ZM37.5439 12.0029C37.5439 12.9805 37.2933 13.7521 36.792 14.3179C36.2907 14.8836 35.6193 15.1665 34.7778 15.1665C33.9292 15.1665 33.2542 14.8836 32.7529 14.3179C32.2552 13.7521 32.0063 12.9805 32.0063 12.0029C32.0063 11.0254 32.2552 10.2537 32.7529 9.68799C33.2542 9.11865 33.9292 8.83398 34.7778 8.83398C35.6193 8.83398 36.2907 9.11865 36.792 9.68799C37.2933 10.2537 37.5439 11.0254 37.5439 12.0029ZM36.502 12.0029C36.502 11.2259 36.3498 10.6494 36.0454 10.2734C35.741 9.89388 35.3185 9.7041 34.7778 9.7041C34.23 9.7041 33.8039 9.89388 33.4995 10.2734C33.1987 10.6494 33.0483 11.2259 33.0483 12.0029C33.0483 12.7549 33.2005 13.326 33.5049 13.7163C33.8092 14.103 34.2336 14.2964 34.7778 14.2964C35.3149 14.2964 35.7357 14.1048 36.04 13.7217C36.348 13.335 36.502 12.762 36.502 12.0029ZM42.856 10.1016H42.8022C42.6519 10.0658 42.505 10.0407 42.3618 10.0264C42.2222 10.0085 42.0557 9.99951 41.8623 9.99951C41.5508 9.99951 41.25 10.0693 40.96 10.209C40.6699 10.3451 40.3906 10.5223 40.1221 10.7407V15H39.1123V9.00049H40.1221V9.88672C40.5231 9.56445 40.8758 9.33708 41.1802 9.20459C41.4881 9.06852 41.8014 9.00049 42.1201 9.00049C42.2956 9.00049 42.4227 9.00586 42.5015 9.0166C42.5802 9.02376 42.6984 9.03988 42.856 9.06494V10.1016ZM52.5615 15H51.5518V11.584C51.5518 11.3262 51.5392 11.0773 51.5142 10.8374C51.4927 10.5975 51.4443 10.4059 51.3691 10.2627C51.2868 10.1087 51.1686 9.99235 51.0146 9.91357C50.8607 9.8348 50.6387 9.79541 50.3486 9.79541C50.0658 9.79541 49.7829 9.86702 49.5 10.0103C49.2171 10.1499 48.9342 10.3289 48.6514 10.5474C48.6621 10.6297 48.6711 10.7264 48.6782 10.8374C48.6854 10.9448 48.689 11.0522 48.689 11.1597V15H47.6792V11.584C47.6792 11.319 47.6667 11.0684 47.6416 10.832C47.6201 10.5921 47.5718 10.4006 47.4966 10.2573C47.4142 10.1034 47.2961 9.98877 47.1421 9.91357C46.9881 9.8348 46.7661 9.79541 46.4761 9.79541C46.2004 9.79541 45.9229 9.86344 45.6436 9.99951C45.3678 10.1356 45.0921 10.3092 44.8164 10.5205V15H43.8066V9.00049H44.8164V9.6665C45.1315 9.40511 45.4448 9.20101 45.7563 9.0542C46.0715 8.90739 46.4062 8.83398 46.7607 8.83398C47.1689 8.83398 47.5145 8.91992 47.7974 9.0918C48.0838 9.26367 48.2969 9.50179 48.4365 9.80615C48.8447 9.4624 49.2171 9.21533 49.5537 9.06494C49.8903 8.91097 50.2502 8.83398 50.6333 8.83398C51.2922 8.83398 51.7773 9.03451 52.0889 9.43555C52.404 9.83301 52.5615 10.3898 52.5615 11.106V15ZM58.792 13.2705C58.792 13.8184 58.5646 14.2677 58.1099 14.6187C57.6587 14.9696 57.041 15.145 56.2568 15.145C55.8128 15.145 55.4046 15.0931 55.0322 14.9893C54.6634 14.8818 54.3537 14.7655 54.103 14.6401V13.5068H54.1567C54.4754 13.7467 54.8299 13.9383 55.2202 14.0815C55.6105 14.2212 55.9847 14.291 56.3428 14.291C56.7868 14.291 57.1341 14.2194 57.3848 14.0762C57.6354 13.9329 57.7607 13.7074 57.7607 13.3994C57.7607 13.1631 57.6927 12.984 57.5566 12.8623C57.4206 12.7406 57.1592 12.6367 56.7725 12.5508C56.6292 12.5186 56.4412 12.481 56.2085 12.438C55.9793 12.395 55.7699 12.3485 55.5801 12.2983C55.0537 12.1587 54.6795 11.9546 54.4575 11.686C54.2391 11.4139 54.1299 11.0809 54.1299 10.687C54.1299 10.4399 54.18 10.2072 54.2803 9.98877C54.3841 9.77035 54.5399 9.5752 54.7476 9.40332C54.9481 9.23503 55.2023 9.10254 55.5103 9.00586C55.8218 8.9056 56.1691 8.85547 56.5522 8.85547C56.9103 8.85547 57.272 8.90023 57.6372 8.98975C58.006 9.07568 58.3122 9.18132 58.5557 9.30664V10.3862H58.502C58.2441 10.1965 57.9308 10.0371 57.562 9.9082C57.1932 9.77572 56.8315 9.70947 56.4771 9.70947C56.1082 9.70947 55.7967 9.78109 55.5425 9.92432C55.2882 10.064 55.1611 10.2734 55.1611 10.5527C55.1611 10.7998 55.2381 10.986 55.3921 11.1113C55.5425 11.2367 55.786 11.3387 56.1226 11.4175C56.3088 11.4604 56.5164 11.5034 56.7456 11.5464C56.9784 11.5894 57.1717 11.6287 57.3257 11.6646C57.7948 11.772 58.1564 11.9564 58.4106 12.2178C58.6649 12.4827 58.792 12.8337 58.792 13.2705Z" fill="#010101" fill-opacity="0.3"/>
<path d="M13.0249 10.9277C13.0249 11.4147 12.9551 11.8605 12.8154 12.2651C12.6758 12.6662 12.4788 13.0063 12.2246 13.2856C11.9883 13.5506 11.709 13.7565 11.3867 13.9033C11.068 14.0465 10.7297 14.1182 10.3716 14.1182C10.0601 14.1182 9.77718 14.0841 9.52295 14.0161C9.2723 13.9481 9.01628 13.8424 8.75488 13.6992V16.2129H7.74512V8.00049H8.75488V8.62891C9.02344 8.40332 9.32422 8.21533 9.65723 8.06494C9.99382 7.91097 10.3519 7.83398 10.7314 7.83398C11.4548 7.83398 12.0169 8.10791 12.418 8.65576C12.8226 9.20003 13.0249 9.95736 13.0249 10.9277ZM11.9829 10.9546C11.9829 10.2313 11.8594 9.69059 11.6123 9.33252C11.3652 8.97445 10.9857 8.79541 10.4736 8.79541C10.1836 8.79541 9.89176 8.85807 9.59814 8.9834C9.30452 9.10872 9.02344 9.27344 8.75488 9.47754V12.8774C9.04134 13.0063 9.28662 13.0941 9.49072 13.1406C9.6984 13.1872 9.93294 13.2104 10.1943 13.2104C10.7565 13.2104 11.1951 13.0207 11.5103 12.6411C11.8254 12.2616 11.9829 11.6994 11.9829 10.9546ZM15.6191 14H14.6094V5.64258H15.6191V14ZM22.2793 14H21.2749V13.3608C21.1854 13.4217 21.0636 13.5076 20.9097 13.6187C20.7593 13.7261 20.6125 13.812 20.4692 13.8765C20.3009 13.9588 20.1076 14.0269 19.8892 14.0806C19.6707 14.1379 19.4147 14.1665 19.1211 14.1665C18.5804 14.1665 18.1221 13.9875 17.7461 13.6294C17.3701 13.2713 17.1821 12.8148 17.1821 12.2598C17.1821 11.805 17.2788 11.438 17.4722 11.1587C17.6691 10.8758 17.9484 10.6538 18.3101 10.4927C18.6753 10.3315 19.1139 10.2223 19.626 10.165C20.138 10.1077 20.6877 10.0648 21.2749 10.0361V9.88037C21.2749 9.6512 21.2337 9.46143 21.1514 9.31104C21.0726 9.16064 20.958 9.04248 20.8076 8.95654C20.6644 8.87419 20.4925 8.81868 20.292 8.79004C20.0915 8.76139 19.882 8.74707 19.6636 8.74707C19.3986 8.74707 19.1032 8.78288 18.7773 8.85449C18.4515 8.92253 18.1149 9.02279 17.7676 9.15527H17.7139V8.12939C17.9108 8.07568 18.1955 8.0166 18.5679 7.95215C18.9403 7.8877 19.3073 7.85547 19.6689 7.85547C20.0915 7.85547 20.4585 7.89128 20.77 7.96289C21.0851 8.03092 21.3573 8.14909 21.5864 8.31738C21.812 8.4821 21.9839 8.69515 22.1021 8.95654C22.2202 9.21794 22.2793 9.54199 22.2793 9.92871V14ZM21.2749 12.5229V10.8525C20.967 10.8704 20.6035 10.8973 20.1846 10.9331C19.7692 10.9689 19.4398 11.0208 19.1963 11.0889C18.9062 11.1712 18.6717 11.3001 18.4927 11.4756C18.3136 11.6475 18.2241 11.8856 18.2241 12.1899C18.2241 12.5337 18.328 12.7933 18.5356 12.9688C18.7433 13.1406 19.0602 13.2266 19.4863 13.2266C19.8408 13.2266 20.1649 13.1585 20.4585 13.0225C20.7521 12.8828 21.0243 12.7163 21.2749 12.5229ZM27.3389 13.9463C27.1491 13.9964 26.9414 14.0376 26.7158 14.0698C26.4938 14.1021 26.2951 14.1182 26.1196 14.1182C25.5073 14.1182 25.0418 13.9535 24.7231 13.624C24.4045 13.2946 24.2451 12.7664 24.2451 12.0396V8.84912H23.563V8.00049H24.2451V6.27637H25.2549V8.00049H27.3389V8.84912H25.2549V11.583C25.2549 11.8981 25.262 12.1452 25.2764 12.3242C25.2907 12.4997 25.3408 12.6644 25.4268 12.8184C25.5055 12.9616 25.613 13.0672 25.749 13.1353C25.8887 13.1997 26.0999 13.2319 26.3828 13.2319C26.5475 13.2319 26.7194 13.2087 26.8984 13.1621C27.0775 13.112 27.2064 13.0708 27.2852 13.0386H27.3389V13.9463ZM31.7915 6.62012H31.7378C31.6268 6.58789 31.4818 6.55566 31.3027 6.52344C31.1237 6.48763 30.9661 6.46973 30.8301 6.46973C30.3968 6.46973 30.0817 6.56641 29.8848 6.75977C29.6914 6.94954 29.5947 7.29508 29.5947 7.79639V8.00049H31.4155V8.84912H29.627V14H28.6172V8.84912H27.9351V8.00049H28.6172V7.80176C28.6172 7.08919 28.7944 6.54313 29.1489 6.16357C29.5034 5.78044 30.0155 5.58887 30.6851 5.58887C30.9106 5.58887 31.113 5.59961 31.292 5.62109C31.4746 5.64258 31.6411 5.66764 31.7915 5.69629V6.62012ZM37.5439 11.0029C37.5439 11.9805 37.2933 12.7521 36.792 13.3179C36.2907 13.8836 35.6193 14.1665 34.7778 14.1665C33.9292 14.1665 33.2542 13.8836 32.7529 13.3179C32.2552 12.7521 32.0063 11.9805 32.0063 11.0029C32.0063 10.0254 32.2552 9.25374 32.7529 8.68799C33.2542 8.11865 33.9292 7.83398 34.7778 7.83398C35.6193 7.83398 36.2907 8.11865 36.792 8.68799C37.2933 9.25374 37.5439 10.0254 37.5439 11.0029ZM36.502 11.0029C36.502 10.2259 36.3498 9.64941 36.0454 9.27344C35.741 8.89388 35.3185 8.7041 34.7778 8.7041C34.23 8.7041 33.8039 8.89388 33.4995 9.27344C33.1987 9.64941 33.0483 10.2259 33.0483 11.0029C33.0483 11.7549 33.2005 12.326 33.5049 12.7163C33.8092 13.103 34.2336 13.2964 34.7778 13.2964C35.3149 13.2964 35.7357 13.1048 36.04 12.7217C36.348 12.335 36.502 11.762 36.502 11.0029ZM42.856 9.10156H42.8022C42.6519 9.06576 42.505 9.04069 42.3618 9.02637C42.2222 9.00846 42.0557 8.99951 41.8623 8.99951C41.5508 8.99951 41.25 9.06934 40.96 9.20898C40.6699 9.34505 40.3906 9.5223 40.1221 9.74072V14H39.1123V8.00049H40.1221V8.88672C40.5231 8.56445 40.8758 8.33708 41.1802 8.20459C41.4881 8.06852 41.8014 8.00049 42.1201 8.00049C42.2956 8.00049 42.4227 8.00586 42.5015 8.0166C42.5802 8.02376 42.6984 8.03988 42.856 8.06494V9.10156ZM52.5615 14H51.5518V10.584C51.5518 10.3262 51.5392 10.0773 51.5142 9.8374C51.4927 9.59749 51.4443 9.40592 51.3691 9.2627C51.2868 9.10872 51.1686 8.99235 51.0146 8.91357C50.8607 8.8348 50.6387 8.79541 50.3486 8.79541C50.0658 8.79541 49.7829 8.86702 49.5 9.01025C49.2171 9.1499 48.9342 9.32894 48.6514 9.54736C48.6621 9.62972 48.6711 9.7264 48.6782 9.8374C48.6854 9.94482 48.689 10.0522 48.689 10.1597V14H47.6792V10.584C47.6792 10.319 47.6667 10.0684 47.6416 9.83203C47.6201 9.59212 47.5718 9.40055 47.4966 9.25732C47.4142 9.10335 47.2961 8.98877 47.1421 8.91357C46.9881 8.8348 46.7661 8.79541 46.4761 8.79541C46.2004 8.79541 45.9229 8.86344 45.6436 8.99951C45.3678 9.13558 45.0921 9.30924 44.8164 9.52051V14H43.8066V8.00049H44.8164V8.6665C45.1315 8.40511 45.4448 8.20101 45.7563 8.0542C46.0715 7.90739 46.4062 7.83398 46.7607 7.83398C47.1689 7.83398 47.5145 7.91992 47.7974 8.0918C48.0838 8.26367 48.2969 8.50179 48.4365 8.80615C48.8447 8.4624 49.2171 8.21533 49.5537 8.06494C49.8903 7.91097 50.2502 7.83398 50.6333 7.83398C51.2922 7.83398 51.7773 8.03451 52.0889 8.43555C52.404 8.83301 52.5615 9.38981 52.5615 10.106V14ZM58.792 12.2705C58.792 12.8184 58.5646 13.2677 58.1099 13.6187C57.6587 13.9696 57.041 14.145 56.2568 14.145C55.8128 14.145 55.4046 14.0931 55.0322 13.9893C54.6634 13.8818 54.3537 13.7655 54.103 13.6401V12.5068H54.1567C54.4754 12.7467 54.8299 12.9383 55.2202 13.0815C55.6105 13.2212 55.9847 13.291 56.3428 13.291C56.7868 13.291 57.1341 13.2194 57.3848 13.0762C57.6354 12.9329 57.7607 12.7074 57.7607 12.3994C57.7607 12.1631 57.6927 11.984 57.5566 11.8623C57.4206 11.7406 57.1592 11.6367 56.7725 11.5508C56.6292 11.5186 56.4412 11.481 56.2085 11.438C55.9793 11.395 55.7699 11.3485 55.5801 11.2983C55.0537 11.1587 54.6795 10.9546 54.4575 10.686C54.2391 10.4139 54.1299 10.0809 54.1299 9.68701C54.1299 9.43994 54.18 9.20719 54.2803 8.98877C54.3841 8.77035 54.5399 8.5752 54.7476 8.40332C54.9481 8.23503 55.2023 8.10254 55.5103 8.00586C55.8218 7.9056 56.1691 7.85547 56.5522 7.85547C56.9103 7.85547 57.272 7.90023 57.6372 7.98975C58.006 8.07568 58.3122 8.18132 58.5557 8.30664V9.38623H58.502C58.2441 9.19645 57.9308 9.03711 57.562 8.9082C57.1932 8.77572 56.8315 8.70947 56.4771 8.70947C56.1082 8.70947 55.7967 8.78109 55.5425 8.92432C55.2882 9.06396 55.1611 9.27344 55.1611 9.55273C55.1611 9.7998 55.2381 9.986 55.3921 10.1113C55.5425 10.2367 55.786 10.3387 56.1226 10.4175C56.3088 10.4604 56.5164 10.5034 56.7456 10.5464C56.9784 10.5894 57.1717 10.6287 57.3257 10.6646C57.7948 10.772 58.1564 10.9564 58.4106 11.2178C58.6649 11.4827 58.792 11.8337 58.792 12.2705Z" fill="white"/>
<path d="M77.2383 14H76.2339V13.3608C76.1444 13.4217 76.0226 13.5076 75.8687 13.6187C75.7183 13.7261 75.5715 13.812 75.4282 13.8765C75.2599 13.9588 75.0666 14.0269 74.8481 14.0806C74.6297 14.1379 74.3737 14.1665 74.0801 14.1665C73.5394 14.1665 73.0811 13.9875 72.7051 13.6294C72.3291 13.2713 72.1411 12.8148 72.1411 12.2598C72.1411 11.805 72.2378 11.438 72.4312 11.1587C72.6281 10.8758 72.9074 10.6538 73.269 10.4927C73.6343 10.3315 74.0729 10.2223 74.585 10.165C75.097 10.1077 75.6466 10.0648 76.2339 10.0361V9.88037C76.2339 9.6512 76.1927 9.46143 76.1104 9.31104C76.0316 9.16064 75.917 9.04248 75.7666 8.95654C75.6234 8.87419 75.4515 8.81868 75.251 8.79004C75.0505 8.76139 74.841 8.74707 74.6226 8.74707C74.3576 8.74707 74.0622 8.78288 73.7363 8.85449C73.4105 8.92253 73.0739 9.02279 72.7266 9.15527H72.6729V8.12939C72.8698 8.07568 73.1545 8.0166 73.5269 7.95215C73.8993 7.8877 74.2663 7.85547 74.6279 7.85547C75.0505 7.85547 75.4175 7.89128 75.729 7.96289C76.0441 8.03092 76.3162 8.14909 76.5454 8.31738C76.771 8.4821 76.9429 8.69515 77.061 8.95654C77.1792 9.21794 77.2383 9.54199 77.2383 9.92871V14ZM76.2339 12.5229V10.8525C75.9259 10.8704 75.5625 10.8973 75.1436 10.9331C74.7282 10.9689 74.3988 11.0208 74.1553 11.0889C73.8652 11.1712 73.6307 11.3001 73.4517 11.4756C73.2726 11.6475 73.1831 11.8856 73.1831 12.1899C73.1831 12.5337 73.2869 12.7933 73.4946 12.9688C73.7023 13.1406 74.0192 13.2266 74.4453 13.2266C74.7998 13.2266 75.1239 13.1585 75.4175 13.0225C75.7111 12.8828 75.9832 12.7163 76.2339 12.5229ZM84.1992 14H83.1895V10.584C83.1895 10.3083 83.1733 10.0505 83.1411 9.81055C83.1089 9.56706 83.0498 9.37728 82.9639 9.24121C82.8743 9.09082 82.7454 8.97982 82.5771 8.9082C82.4089 8.83301 82.1904 8.79541 81.9219 8.79541C81.6462 8.79541 81.3579 8.86344 81.0571 8.99951C80.7563 9.13558 80.4681 9.30924 80.1924 9.52051V14H79.1826V8.00049H80.1924V8.6665C80.5075 8.40511 80.8333 8.20101 81.1699 8.0542C81.5065 7.90739 81.8521 7.83398 82.2065 7.83398C82.8547 7.83398 83.3488 8.02913 83.689 8.41943C84.0291 8.80973 84.1992 9.37191 84.1992 10.106V14ZM91.0098 14H90V13.3716C89.71 13.6222 89.4074 13.8174 89.0923 13.957C88.7772 14.0967 88.4352 14.1665 88.0664 14.1665C87.3503 14.1665 86.7809 13.8908 86.3584 13.3394C85.9395 12.7879 85.73 12.0234 85.73 11.0459C85.73 10.5374 85.8016 10.0845 85.9448 9.68701C86.0916 9.28955 86.2886 8.95117 86.5356 8.67188C86.7791 8.39974 87.062 8.19206 87.3843 8.04883C87.7101 7.9056 88.0467 7.83398 88.394 7.83398C88.7091 7.83398 88.9884 7.868 89.2319 7.93604C89.4754 8.00049 89.7314 8.10254 90 8.24219V5.64258H91.0098V14ZM90 12.5229V9.08008C89.7279 8.95833 89.4844 8.87419 89.2695 8.82764C89.0547 8.78109 88.8201 8.75781 88.5659 8.75781C88.0002 8.75781 87.5597 8.95475 87.2446 9.34863C86.9295 9.74251 86.772 10.3011 86.772 11.0244C86.772 11.737 86.8937 12.2795 87.1372 12.6519C87.3807 13.0207 87.771 13.2051 88.3081 13.2051C88.5946 13.2051 88.8846 13.1424 89.1782 13.0171C89.4718 12.8882 89.7458 12.7235 90 12.5229ZM96.7407 9.10156H96.687C96.5366 9.06576 96.3898 9.04069 96.2466 9.02637C96.1069 9.00846 95.9404 8.99951 95.7471 8.99951C95.4355 8.99951 95.1348 9.06934 94.8447 9.20898C94.5547 9.34505 94.2754 9.5223 94.0068 9.74072V14H92.9971V8.00049H94.0068V8.88672C94.4079 8.56445 94.7606 8.33708 95.0649 8.20459C95.3729 8.06852 95.6862 8.00049 96.0049 8.00049C96.1803 8.00049 96.3075 8.00586 96.3862 8.0166C96.465 8.02376 96.5832 8.03988 96.7407 8.06494V9.10156ZM102.805 11.0029C102.805 11.9805 102.554 12.7521 102.053 13.3179C101.551 13.8836 100.88 14.1665 100.039 14.1665C99.1899 14.1665 98.515 13.8836 98.0137 13.3179C97.516 12.7521 97.2671 11.9805 97.2671 11.0029C97.2671 10.0254 97.516 9.25374 98.0137 8.68799C98.515 8.11865 99.1899 7.83398 100.039 7.83398C100.88 7.83398 101.551 8.11865 102.053 8.68799C102.554 9.25374 102.805 10.0254 102.805 11.0029ZM101.763 11.0029C101.763 10.2259 101.611 9.64941 101.306 9.27344C101.002 8.89388 100.579 8.7041 100.039 8.7041C99.4907 8.7041 99.0646 8.89388 98.7603 9.27344C98.4595 9.64941 98.3091 10.2259 98.3091 11.0029C98.3091 11.7549 98.4613 12.326 98.7656 12.7163C99.07 13.103 99.4943 13.2964 100.039 13.2964C100.576 13.2964 100.996 13.1048 101.301 12.7217C101.609 12.335 101.763 11.762 101.763 11.0029ZM105.458 6.99609H104.319V5.94873H105.458V6.99609ZM105.394 14H104.384V8.00049H105.394V14ZM112.258 14H111.248V13.3716C110.958 13.6222 110.655 13.8174 110.34 13.957C110.025 14.0967 109.683 14.1665 109.314 14.1665C108.598 14.1665 108.029 13.8908 107.606 13.3394C107.188 12.7879 106.978 12.0234 106.978 11.0459C106.978 10.5374 107.05 10.0845 107.193 9.68701C107.34 9.28955 107.537 8.95117 107.784 8.67188C108.027 8.39974 108.31 8.19206 108.632 8.04883C108.958 7.9056 109.295 7.83398 109.642 7.83398C109.957 7.83398 110.236 7.868 110.48 7.93604C110.723 8.00049 110.979 8.10254 111.248 8.24219V5.64258H112.258V14ZM111.248 12.5229V9.08008C110.976 8.95833 110.732 8.87419 110.518 8.82764C110.303 8.78109 110.068 8.75781 109.814 8.75781C109.248 8.75781 108.808 8.95475 108.493 9.34863C108.178 9.74251 108.02 10.3011 108.02 11.0244C108.02 11.737 108.142 12.2795 108.385 12.6519C108.629 13.0207 109.019 13.2051 109.556 13.2051C109.843 13.2051 110.133 13.1424 110.426 13.0171C110.72 12.8882 110.994 12.7235 111.248 12.5229ZM120.083 16.1055H119.149V5.64258H120.083V16.1055ZM128.06 6.99609H126.921V5.94873H128.06V6.99609ZM127.995 14H126.985V8.00049H127.995V14ZM135.106 11.0029C135.106 11.9805 134.856 12.7521 134.354 13.3179C133.853 13.8836 133.182 14.1665 132.34 14.1665C131.492 14.1665 130.817 13.8836 130.315 13.3179C129.818 12.7521 129.569 11.9805 129.569 11.0029C129.569 10.0254 129.818 9.25374 130.315 8.68799C130.817 8.11865 131.492 7.83398 132.34 7.83398C133.182 7.83398 133.853 8.11865 134.354 8.68799C134.856 9.25374 135.106 10.0254 135.106 11.0029ZM134.064 11.0029C134.064 10.2259 133.912 9.64941 133.608 9.27344C133.304 8.89388 132.881 8.7041 132.34 8.7041C131.792 8.7041 131.366 8.89388 131.062 9.27344C130.761 9.64941 130.611 10.2259 130.611 11.0029C130.611 11.7549 130.763 12.326 131.067 12.7163C131.372 13.103 131.796 13.2964 132.34 13.2964C132.877 13.2964 133.298 13.1048 133.603 12.7217C133.91 12.335 134.064 11.762 134.064 11.0029ZM140.961 12.2705C140.961 12.8184 140.734 13.2677 140.279 13.6187C139.828 13.9696 139.21 14.145 138.426 14.145C137.982 14.145 137.574 14.0931 137.201 13.9893C136.832 13.8818 136.523 13.7655 136.272 13.6401V12.5068H136.326C136.644 12.7467 136.999 12.9383 137.389 13.0815C137.779 13.2212 138.154 13.291 138.512 13.291C138.956 13.291 139.303 13.2194 139.554 13.0762C139.804 12.9329 139.93 12.7074 139.93 12.3994C139.93 12.1631 139.862 11.984 139.726 11.8623C139.59 11.7406 139.328 11.6367 138.941 11.5508C138.798 11.5186 138.61 11.481 138.377 11.438C138.148 11.395 137.939 11.3485 137.749 11.2983C137.223 11.1587 136.848 10.9546 136.626 10.686C136.408 10.4139 136.299 10.0809 136.299 9.68701C136.299 9.43994 136.349 9.20719 136.449 8.98877C136.553 8.77035 136.709 8.5752 136.917 8.40332C137.117 8.23503 137.371 8.10254 137.679 8.00586C137.991 7.9056 138.338 7.85547 138.721 7.85547C139.079 7.85547 139.441 7.90023 139.806 7.98975C140.175 8.07568 140.481 8.18132 140.725 8.30664V9.38623H140.671C140.413 9.19645 140.1 9.03711 139.731 8.9082C139.362 8.77572 139 8.70947 138.646 8.70947C138.277 8.70947 137.966 8.78109 137.711 8.92432C137.457 9.06396 137.33 9.27344 137.33 9.55273C137.33 9.7998 137.407 9.986 137.561 10.1113C137.711 10.2367 137.955 10.3387 138.292 10.4175C138.478 10.4604 138.685 10.5034 138.915 10.5464C139.147 10.5894 139.341 10.6287 139.495 10.6646C139.964 10.772 140.325 10.9564 140.58 11.2178C140.834 11.4827 140.961 11.8337 140.961 12.2705Z" fill="white"/>
<defs>
<linearGradient id="paint0_linear" x1="0" y1="0" x2="0" y2="20" gradientUnits="userSpaceOnUse">
<stop stop-color="#BBBBBB" stop-opacity="0.1"/>
<stop offset="1" stop-opacity="0.1"/>
</linearGradient>
</defs>
</svg>
